<svg width="40" height="28" viewBox="0 0 40 28" fill="none" xmlns="http://www.w3.org/2000/svg">
<path d="M16.9577 27.1583C22.98 27.1583 27.862 22.2715 27.862 16.2434C27.862 10.2152 22.98 5.32845 16.9577 5.32845C10.9355 5.32845 6.05347 10.2152 6.05347 16.2434C6.05347 22.2715 10.9355 27.1583 16.9577 27.1583Z" fill="#B8B7EE"/>
<path d="M8.35874 26.1984C12.6766 26.1984 16.1769 22.6946 16.1769 18.3725C16.1769 14.0504 12.6766 10.5467 8.35874 10.5467C4.04086 10.5467 0.540527 14.0504 0.540527 18.3725C0.540527 22.6946 4.04086 26.1984 8.35874 26.1984Z" fill="#B8B7EE"/>
<path d="M18.6227 18.3725C22.9405 18.3725 26.4409 14.8688 26.4409 10.5467C26.4409 6.22461 22.9405 2.72087 18.6227 2.72087C14.3048 2.72087 10.8044 6.22461 10.8044 10.5467C10.8044 14.8688 14.3048 18.3725 18.6227 18.3725Z" fill="#B8B7EE"/>
<path d="M26.953 26.9394C34.1517 26.9394 39.9875 21.0979 39.9875 13.8922C39.9875 6.68636 34.1517 0.844919 26.953 0.844919C19.7542 0.844919 13.9185 6.68636 13.9185 13.8922C13.9185 21.0979 19.7542 26.9394 26.953 26.9394Z" fill="#FEF08A"/>
<path d="M23.3203 25.3261C28.5128 25.3261 32.7221 21.1126 32.7221 15.915C32.7221 10.7175 28.5128 6.50402 23.3203 6.50402C18.1278 6.50402 13.9185 10.7175 13.9185 15.915C13.9185 21.1126 18.1278 25.3261 23.3203 25.3261Z" fill="#B8B7EE"/>
<path d="M23.1017 24.0692C27.4195 24.0692 30.9199 20.5654 30.9199 16.2433C30.9199 11.9212 27.4195 8.4175 23.1017 8.4175C18.7838 8.4175 15.2834 11.9212 15.2834 16.2433C15.2834 20.5654 18.7838 24.0692 23.1017 24.0692Z" fill="#DDD6FE" stroke="#B8B7EE" stroke-miterlimit="10"/>
<path d="M21.7367 24.5319C26.0545 24.5319 29.5549 21.0282 29.5549 16.7061C29.5549 12.384 26.0545 8.88023 21.7367 8.88023C17.4188 8.88023 13.9185 12.384 13.9185 16.7061C13.9185 21.0282 17.4188 24.5319 21.7367 24.5319Z" fill="#B8B7EE"/>
<path d="M4.18555 17.2282C4.64614 17.2282 5.01953 15.3594 5.01953 13.0542C5.01953 10.749 4.64614 8.88023 4.18555 8.88023C3.72495 8.88023 3.35156 10.749 3.35156 13.0542C3.35156 15.3594 3.72495 17.2282 4.18555 17.2282Z" fill="#FEF08A"/>
<path d="M4.18554 13.889C6.48853 13.889 8.35546 13.5153 8.35546 13.0542C8.35546 12.5932 6.48853 12.2194 4.18554 12.2194C1.88256 12.2194 0.015625 12.5932 0.015625 13.0542C0.015625 13.5153 1.88256 13.889 4.18554 13.889Z" fill="#FEF08A"/>
</svg>
