<svg width="36" height="36" viewBox="0 0 36 36" fill="none" xmlns="http://www.w3.org/2000/svg">
    <path d="M18.78 0.288033C18.5626 0.102118 18.286 -4.57764e-05 18 -4.57764e-05C17.714 -4.57764e-05 17.4374 0.102118 17.22 0.288033L0 15.048V32.4C0 33.3548 0.379285 34.2705 1.05442 34.9456C1.72955 35.6207 2.64522 36 3.6 36H13.2C13.5183 36 13.8235 35.8736 14.0485 35.6486C14.2736 35.4235 14.4 35.1183 14.4 34.8V27.6C14.4 26.6453 14.7793 25.7296 15.4544 25.0544C16.1295 24.3793 17.0452 24 18 24C18.9548 24 19.8705 24.3793 20.5456 25.0544C21.2207 25.7296 21.6 26.6453 21.6 27.6V34.8C21.6 35.1183 21.7264 35.4235 21.9515 35.6486C22.1765 35.8736 22.4817 36 22.8 36H32.4C33.3548 36 34.2705 35.6207 34.9456 34.9456C35.6207 34.2705 36 33.3548 36 32.4V15.048L18.78 0.288033Z" fill="#F8FAFC"/>
    </svg>
    