<svg width="24" height="25" viewBox="0 0 24 25" fill="none" xmlns="http://www.w3.org/2000/svg">
<path d="M18.1723 24.5C17.8447 24.4997 17.5222 24.4161 17.2326 24.2565L12.3114 21.5602C12.2153 21.5077 12.1085 21.4803 12 21.4803C11.8915 21.4803 11.7847 21.5077 11.6886 21.5602L6.76201 24.2565C6.42945 24.439 6.05455 24.5208 5.67972 24.4926C5.30489 24.4645 4.94508 24.3276 4.64101 24.0975C4.33693 23.8673 4.10072 23.553 3.9591 23.1901C3.81748 22.8273 3.7761 22.4304 3.83963 22.0443L4.77931 16.3325C4.79771 16.2209 4.78985 16.1064 4.75642 15.9986C4.72298 15.8909 4.66496 15.7933 4.58734 15.7141L0.608511 11.6688C0.339264 11.3954 0.148811 11.0489 0.0587067 10.6685C-0.0313973 10.2881 -0.0175545 9.88902 0.0986684 9.51641C0.214891 9.14379 0.428854 8.81253 0.71634 8.56011C1.00383 8.30768 1.35336 8.14418 1.72538 8.0881L7.22916 7.24854C7.33667 7.2322 7.43877 7.18891 7.52668 7.12237C7.6146 7.05583 7.68571 6.96804 7.7339 6.86654L10.1945 1.6697C10.3608 1.31858 10.618 1.02295 10.9371 0.81625C11.2562 0.609544 11.6243 0.5 12 0.5C12.3757 0.5 12.7438 0.609544 13.0629 0.81625C13.382 1.02295 13.6392 1.31858 13.8055 1.6697L16.2661 6.86654C16.3141 6.96831 16.3852 7.05637 16.4731 7.12316C16.561 7.18995 16.6632 7.23346 16.7708 7.24994L22.2746 8.0895C22.6466 8.14558 22.9962 8.30908 23.2837 8.5615C23.5711 8.81393 23.7851 9.14519 23.9013 9.51781C24.0176 9.89042 24.0314 10.2895 23.9413 10.6699C23.8512 11.0503 23.6607 11.3968 23.3915 11.6702L19.4113 15.7155C19.3335 15.7945 19.2752 15.8921 19.2415 15.9999C19.2078 16.1076 19.1998 16.2222 19.218 16.3339L20.1577 22.0457C20.2074 22.3471 20.1933 22.6561 20.1164 22.9512C20.0395 23.2463 19.9017 23.5204 19.7125 23.7541C19.5234 23.9879 19.2876 24.1758 19.0216 24.3046C18.7555 24.4335 18.4657 24.5001 18.1723 24.5ZM12.937 20.3218L17.8555 23.0126C17.9663 23.0731 18.0912 23.1002 18.216 23.0907C18.3408 23.0812 18.4605 23.0355 18.5617 22.9588C18.663 22.8822 18.7416 22.7775 18.7888 22.6567C18.8359 22.5359 18.8498 22.4037 18.8287 22.2752L17.889 16.5634C17.8339 16.2279 17.8579 15.8834 17.9589 15.5597C18.0599 15.2359 18.235 14.9427 18.469 14.7052L22.4491 10.6613C22.5389 10.5702 22.6024 10.4548 22.6324 10.328C22.6625 10.2012 22.6579 10.0682 22.6192 9.94405C22.5805 9.81985 22.5093 9.70943 22.4135 9.62526C22.3177 9.54109 22.2013 9.48653 22.0773 9.46777L16.5735 8.62821C16.2502 8.57934 15.9432 8.44922 15.679 8.24908C15.4147 8.04895 15.2011 7.78479 15.0566 7.47942L12.6 2.29517C12.5398 2.18333 12.4522 2.09022 12.346 2.02542C12.2398 1.96062 12.119 1.92646 11.996 1.92646C11.8729 1.92646 11.7521 1.96062 11.646 2.02542C11.5398 2.09022 11.4521 2.18333 11.3919 2.29517L8.93533 7.49201C8.79068 7.79713 8.57702 8.061 8.31276 8.26089C8.0485 8.46077 7.74158 8.59068 7.41844 8.63941L1.91465 9.47896C1.79068 9.49772 1.67423 9.55228 1.57846 9.63645C1.48268 9.72062 1.41142 9.83105 1.37273 9.95524C1.33404 10.0794 1.32947 10.2124 1.35952 10.3392C1.38958 10.466 1.45307 10.5814 1.54281 10.6725L5.52701 14.7122C5.76159 14.9504 5.93688 15.2446 6.0377 15.5694C6.13852 15.8942 6.16182 16.2397 6.10558 16.576L5.16591 22.2878C5.14467 22.4165 5.15844 22.5489 5.20567 22.6699C5.25289 22.791 5.33168 22.8958 5.43311 22.9725C5.53454 23.0493 5.65456 23.0949 5.77958 23.1042C5.9046 23.1135 6.02962 23.0861 6.14048 23.0252L11.0576 20.3218C11.3473 20.1625 11.6698 20.0793 11.9973 20.0793C12.3248 20.0793 12.6473 20.1625 12.937 20.3218Z" fill="#262626"/>
</svg>
